<?xml version="1.0" encoding="iso-8859-1"?>
<!-- Generator: Adobe Illustrator 17.0.1, SVG Export Plug-In . SVG Version: 6.00 Build 0)  -->
<!DOCTYPE svg PUBLIC "-//W3C//DTD SVG 1.1//EN" "http://www.w3.org/Graphics/SVG/1.1/DTD/svg11.dtd">
<svg version="1.1" id="Layer_1" xmlns="http://www.w3.org/2000/svg" xmlns:xlink="http://www.w3.org/1999/xlink" x="0px" y="0px"
	 width="409.949px" height="256.968px" viewBox="0 0 409.949 256.968" style="enable-background:new 0 0 409.949 256.968;"
	 xml:space="preserve">
<rect style="fill:#0B1A3F;" width="409.949" height="256.968"/>
<image style="overflow:visible;" width="410" height="257" xlink:href="ADF1883F.jpg"  transform="matrix(0.9999 0 0 0.9999 501.3333 0)">
</image>
<rect x="38.333" y="58.667" style="fill:#4472B8;" width="38.667" height="38.667"/>
<rect x="79.333" y="58.667" style="fill:#5BA845;" width="38.667" height="38.667"/>
<rect x="120.833" y="58.667" style="fill:#AF1E40;" width="79.667" height="38.667"/>
<rect x="203.974" y="58.667" style="fill:#078E45;" width="79.667" height="38.667"/>
<rect x="301.974" y="58.667" style="fill:#56439B;" width="79.667" height="38.667"/>
<rect x="38.333" y="99.667" style="fill:#55429A;" width="38.667" height="38.667"/>
<rect x="79.333" y="99.667" style="fill:#4672B8;" width="38.667" height="38.667"/>
<rect x="203.974" y="141.667" style="fill:#000101;" width="38.667" height="38.667"/>
<rect x="244.974" y="141.667" style="fill:#4573B9;" width="38.667" height="38.667"/>
<rect x="301.974" y="141.667" style="fill:#DB542E;" width="38.667" height="38.667"/>
<rect x="342.974" y="141.667" style="fill:#213065;" width="38.667" height="38.667"/>
<rect x="120.833" y="99.667" style="fill:#57449B;" width="79.667" height="38.667"/>
<rect x="120.833" y="141.667" style="fill:#089948;" width="79.667" height="38.667"/>
<rect x="38.167" y="141.667" style="fill:#D34927;" width="79.667" height="38.667"/>
<rect x="203.974" y="183.167" style="fill:#B91F49;" width="38.667" height="38.667"/>
<rect x="244.974" y="183.167" style="fill:#60A945;" width="38.667" height="38.667"/>
<rect x="120.833" y="183.167" style="fill:#4472B8;" width="79.667" height="38.667"/>
<rect x="38.167" y="183.167" style="fill:#2A7D88;" width="79.667" height="38.667"/>
<rect x="203.974" y="99.667" style="fill:#D8502B;" width="79.667" height="38.667"/>
<rect x="301.974" y="99.667" style="fill:#089146;" width="79.667" height="38.667"/>
<rect x="301.974" y="183.167" style="fill:#FAF9F9;" width="79.667" height="38.667"/>
</svg>
